<?xml version="1.0" standalone="no"?>
<!DOCTYPE svg PUBLIC "-//W3C//DTD SVG 20010904//EN"
 "http://www.w3.org/TR/2001/REC-SVG-20010904/DTD/svg10.dtd">
<svg version="1.0" xmlns="http://www.w3.org/2000/svg"
 width="640.000000pt" height="640.000000pt" viewBox="0 0 640.000000 640.000000"
 preserveAspectRatio="xMidYMid meet">
<metadata>
Created by potrace 1.16, written by Peter Selinger 2001-2019
</metadata>
<g transform="translate(0.000000,640.000000) scale(0.100000,-0.100000)"
fill="#000000" stroke="none">
<path d="M0 3200 l0 -3200 3200 0 3200 0 0 3200 0 3200 -3200 0 -3200 0 0
-3200z m1153 457 c100 -46 167 -138 170 -236 l2 -46 -102 -3 -102 -3 -15 34
c-19 47 -51 67 -107 67 -60 0 -99 -29 -99 -72 0 -42 42 -78 126 -107 122 -41
228 -97 267 -140 37 -41 67 -120 67 -176 0 -90 -67 -202 -144 -242 -90 -46
-232 -56 -339 -23 -120 37 -212 151 -205 253 l3 42 94 3 c96 3 121 -5 121 -38
0 -65 170 -91 227 -34 29 29 29 45 -2 82 -17 20 -50 39 -103 57 -249 88 -319
151 -330 296 -11 156 65 263 217 306 69 20 188 10 254 -20z m3157 22 c93 -15
193 -66 273 -141 37 -35 67 -68 67 -73 0 -6 -38 -48 -84 -94 l-83 -83 -57 56
c-31 30 -76 64 -100 75 -115 56 -275 -5 -328 -126 -24 -55 -26 -145 -4 -198
37 -88 137 -155 232 -155 100 0 139 30 454 346 288 290 357 348 453 381 72 24
223 24 297 -1 173 -58 282 -166 332 -331 109 -355 -206 -706 -566 -632 -110
23 -177 58 -263 140 l-74 71 87 87 88 88 58 -55 c94 -89 179 -114 277 -79 144
50 209 219 137 352 -63 115 -204 164 -319 110 -34 -16 -128 -103 -355 -327
-331 -329 -363 -354 -493 -385 -81 -19 -137 -19 -218 0 -237 56 -391 248 -391
484 0 142 46 249 149 352 121 121 261 166 431 138z m-2572 -21 c9 -9 12 -126
12 -464 0 -249 -3 -459 -6 -468 -5 -13 -24 -16 -104 -16 -55 0 -101 4 -104 9
-8 12 -8 929 -1 941 9 15 188 13 203 -2z m742 -19 c69 -33 125 -88 159 -159
22 -46 26 -69 26 -140 0 -105 -24 -159 -103 -231 -38 -35 -51 -53 -45 -62 6
-6 63 -79 127 -161 64 -82 115 -154 113 -160 -2 -7 -45 -12 -118 -14 l-115 -3
-124 156 -123 155 -43 0 -43 0 -3 -152 -3 -153 -105 0 -105 0 -3 464 c-2 347
1 467 10 478 9 12 49 14 227 11 208 -3 218 -4 271 -29z m923 17 c8 -8 26 -50
40 -93 218 -670 268 -827 263 -839 -4 -11 -29 -14 -115 -14 l-111 0 -22 75
-23 75 -167 0 -167 0 -23 -72 -23 -73 -109 -3 c-60 -1 -113 1 -118 6 -6 6 44
173 127 428 75 231 143 440 151 466 8 26 21 49 27 52 7 2 67 5 134 5 94 1 125
-2 136 -13z"/>
<path d="M2190 3340 l0 -120 93 0 c102 0 126 9 152 60 29 55 12 130 -37 164
-16 12 -47 16 -115 16 l-93 0 0 -120z"/>
<path d="M3213 3243 l-50 -168 100 -3 c55 -1 101 -1 103 1 5 5 -87 319 -96
330 -4 4 -29 -68 -57 -160z"/>
</g>
</svg>
